<svg width="127" height="20" viewBox="0 0 127 20" fill="none" xmlns="http://www.w3.org/2000/svg">
<path d="M16.3483 18.7823C14.4453 19.6044 12.3913 20.019 10.3185 19.9993C3.96962 19.9988 0 16.0312 0 10.1054C0 4.44446 4.12689 0.106024 10.8461 0.106024C12.7385 0.107322 14.6168 0.430156 16.4011 1.06074C16.4011 2.01546 16.5071 3.44151 16.5598 4.34095L16.0292 4.28568C14.974 2.11596 13.1208 1.00547 10.5813 1.00547C5.767 1.00547 3.06867 4.81479 3.06867 10.1054C3.06867 15.3433 5.92578 19.1501 10.3697 19.1501C12.9093 19.1501 15.0258 18.0391 16.1367 15.2348H16.7186C16.6126 16.0815 16.4011 17.404 16.3483 18.7793V18.7823Z" fill="#FFF7EF"/>
<path d="M27.5647 0.211545V0.846182C27.0884 0.898943 25.6603 0.952206 25.2367 1.32254C25.0952 1.48281 25.0197 1.69069 25.0252 1.90441C25.1394 2.76096 25.3708 3.59773 25.7131 4.3912L26.6678 6.98351H32.8026L33.7573 4.3912C34.0757 3.59332 34.2887 2.75735 34.391 1.90441C34.391 0.846182 32.6981 0.949693 31.7986 0.846182V0.211545H38.4611V0.846182C37.6144 0.898943 36.7682 0.898943 36.1331 1.48082C35.604 2.00993 35.3396 2.85662 34.9693 3.86158L31.2153 14.4434C29.8927 18.1999 30.0515 17.8296 29.4164 19.6285H28.5697C28.3054 18.7818 27.615 16.9302 26.8768 14.8142L22.9072 3.91535C22.5369 2.91038 22.2726 2.0637 21.7435 1.53458C21.1098 0.899445 20.2636 0.952206 19.417 0.899445V0.211545H27.5647ZM27.829 10.317C28.94 13.3319 29.5219 15.3418 29.7334 16.1895H29.7862C30.0505 15.2348 30.5269 13.65 31.6906 10.317L32.5373 7.88346H26.9828L27.829 10.317Z" fill="#FFF7EF"/>
<path d="M46.8757 19.9988C44.0718 19.9988 41.7438 19.1521 41.0031 18.6763C40.9504 17.4065 40.8443 15.7116 40.7388 14.7067L41.4795 14.5479C42.0614 17.405 44.0718 19.0979 46.9289 19.0979C49.4685 19.0979 51.7432 17.9869 51.7432 15.1283C51.7432 12.536 49.3624 11.6893 46.8757 10.7371C44.1246 9.7321 41.2674 8.67387 41.2674 5.12885C41.2674 1.69287 44.2828 0 47.7731 0C49.3831 0.0227064 50.9768 0.327117 52.4819 0.899445C52.4291 1.42856 52.4291 2.01044 52.4291 2.59231C52.4291 3.22695 52.4819 4.44396 52.4819 4.44396L51.8472 4.49672C51.5297 2.11596 49.8875 0.846182 47.456 0.846182C45.234 0.846182 43.4864 1.90441 43.4864 4.17915C43.4864 6.7187 45.7084 7.45936 48.1424 8.35881C50.9995 9.36378 54.122 10.422 54.122 14.2313C54.0707 18.5703 50.2614 19.9988 46.8757 19.9988Z" fill="#FFF7EF"/>
<path d="M58.991 19.6818V19.0466C59.5729 18.9939 61.1603 18.9406 61.5833 18.5175C61.8476 18.2532 61.9009 17.7241 61.9009 16.6659C61.9009 16.6659 61.9537 13.2269 61.9537 12.2219V6.66645C61.9537 5.66148 61.9009 3.439 61.9009 3.439C61.9009 2.38077 61.8481 1.90491 61.5833 1.58734C61.1603 1.16425 59.5734 1.11099 58.991 1.05823V0.476354C59.1498 0.476354 61.1603 0.529115 62.1652 0.529115C63.1702 0.529115 64.3344 0.476354 65.9756 0.476354C69.203 0.476354 71.4777 0.793924 72.9601 2.32801C73.7902 3.23452 74.2278 4.43281 74.1771 5.66098C74.1771 9.4703 71.1084 11.2692 67.5106 11.2692C66.4905 11.2752 65.4748 11.1327 64.4957 10.8461V12.3274C64.4957 13.3324 64.5485 16.6659 64.5485 16.6659C64.6013 17.6708 64.6013 18.1472 64.9188 18.4648C65.2364 18.7823 65.8183 18.8878 66.8785 18.9411L68.1483 19.0471V19.6818H58.991ZM70.2602 2.38077C69.4135 1.53408 68.197 1.21701 65.9745 1.21701C65.4802 1.2062 64.9856 1.22382 64.4932 1.26978V10.1054C65.1767 10.326 65.8916 10.4332 66.6097 10.423C69.4668 10.423 71.424 8.94169 71.424 5.55545C71.4513 4.97552 71.3624 4.39597 71.1626 3.85087C70.9627 3.30577 70.6559 2.80561 70.2602 2.38077Z" fill="#FFF7EF"/>
<path d="M78.1964 19.6818V19.0466C78.7783 18.9939 80.3657 18.9406 80.7888 18.5175C81.0531 18.2532 81.1063 17.7241 81.1063 16.6659C81.1063 16.6659 81.1591 13.2269 81.1591 12.2219V6.66645C81.1591 5.66148 81.1063 3.439 81.1063 3.439C81.1063 2.38077 81.0536 1.90491 80.7888 1.58734C80.3657 1.16425 78.7788 1.11099 78.1964 1.05823V0.476354C79.5723 0.529115 81.5827 0.529115 82.4821 0.529115C83.3816 0.529115 85.3387 0.476354 86.6618 0.476354V1.11099C86.0799 1.16375 84.4926 1.21701 84.0695 1.64011C83.8052 1.90441 83.7519 2.43353 83.7519 3.49176C83.7519 3.49176 83.6991 5.60822 83.6991 6.61318V12.2219C83.6991 13.2269 83.7519 16.6659 83.7519 16.6659C83.8047 17.7241 83.8047 18.1999 84.0695 18.5175C84.4926 18.9406 86.0794 18.9939 86.6618 19.0466V19.6813L78.1964 19.6818Z" fill="#FFF7EF"/>
<path d="M94.8618 19.6813V19.0466C95.4437 18.9939 97.5601 18.9406 97.9832 18.5175C98.2475 18.2532 98.3008 17.7241 98.3008 16.6659C98.3008 16.6659 98.3536 13.2269 98.3536 12.2219V1.53408H95.3889C93.3257 1.53408 92.7966 1.69287 92.3202 2.16872C91.9098 2.63901 91.6199 3.20206 91.4756 3.80933L91.2113 4.81429H90.4706C90.6821 3.80933 91.0525 1.32254 91.1585 0.37033C91.6349 0.423091 94.5447 0.529115 97.6129 0.529115H101.793C104.757 0.529115 108.089 0.423091 108.618 0.37033C108.565 1.3753 108.512 3.33498 108.512 4.81429H107.877L107.665 3.80933C107.454 2.85461 107.348 2.48679 107.03 2.16922C106.554 1.69287 105.919 1.53458 103.75 1.53458H100.84V12.2214C100.84 13.2264 100.893 16.6654 100.893 16.6654C100.945 17.7236 100.945 18.1994 101.21 18.517C101.633 18.9401 103.75 18.9934 104.332 19.0461V19.6808L94.8618 19.6813Z" fill="#FFF7EF"/>
<path d="M118.776 19.0466C119.252 18.9939 120.736 18.9406 121.104 18.5703C121.245 18.41 121.321 18.2021 121.316 17.9884C121.201 17.1319 120.97 16.2951 120.628 15.5016L119.673 12.9093H113.591L112.636 15.5016C112.286 16.3106 112.054 17.1659 111.948 18.0412C111.948 19.0994 113.641 18.9959 114.541 19.0994V19.734H107.877V19.0994C108.724 19.0466 109.57 19.0466 110.205 18.4648C110.734 17.9356 110.999 17.089 111.369 16.084L115.125 5.50269C116.448 1.74613 116.289 2.11646 116.922 0.317569H117.769C118.033 1.16425 118.723 3.0159 119.461 5.13186L123.431 16.086C123.801 17.091 124.066 17.9376 124.595 18.4668C125.229 19.1014 126.076 19.0486 126.923 19.1014V19.736H118.776V19.0466ZM118.458 9.57582C117.347 6.56092 116.766 4.55099 116.554 3.7033H116.501C116.237 4.65802 115.761 6.24285 114.597 9.57582L113.75 12.0093H119.306L118.459 9.57582H118.458Z" fill="#FFF7EF"/>
</svg>
