<svg width="102" height="16" viewBox="0 0 102 16" fill="none" xmlns="http://www.w3.org/2000/svg">
<path d="M13.0786 15.0259C11.5563 15.6835 9.91307 16.0152 8.2548 15.9995C3.17569 15.9991 0 12.825 0 8.08435C0 3.55557 3.30152 0.0848192 8.67688 0.0848192C10.1908 0.0858575 11.6935 0.344125 13.1208 0.848594C13.1208 1.61237 13.2057 2.75321 13.2479 3.47276L12.8234 3.42854C11.9792 1.69277 10.4967 0.804375 8.46503 0.804375C4.6136 0.804375 2.45493 3.85184 2.45493 8.08435C2.45493 12.2747 4.74063 15.3201 8.2958 15.3201C10.3274 15.3201 12.0206 14.4313 12.9094 12.1878H13.3749C13.2901 12.8652 13.1208 13.9232 13.0786 15.0234V15.0259Z" fill="#917E5A"/>
<path d="M22.0518 0.169236V0.676945C21.6707 0.719154 20.5283 0.761765 20.1894 1.05803C20.0762 1.18625 20.0157 1.35255 20.0201 1.52353C20.1115 2.20877 20.2967 2.87819 20.5705 3.51296L21.3342 5.58681H26.2421L27.0059 3.51296C27.2605 2.87466 27.431 2.20588 27.5128 1.52353C27.5128 0.676945 26.1585 0.759755 25.4389 0.676945V0.169236H30.7689V0.676945C30.0915 0.719154 29.4146 0.719154 28.9065 1.18465C28.4832 1.60795 28.2717 2.28529 27.9755 3.08927L24.9722 11.5547C23.9142 14.56 24.0412 14.2637 23.5331 15.7028H22.8558C22.6443 15.0255 22.092 13.5441 21.5015 11.8514L18.3258 3.13228C18.0295 2.32831 17.8181 1.65096 17.3948 1.22767C16.8879 0.719556 16.2109 0.761765 15.5336 0.719556V0.169236H22.0518ZM22.2632 8.25359C23.152 10.6655 23.6175 12.2735 23.7868 12.9516H23.829C24.0404 12.1878 24.4215 10.92 25.3525 8.25359L26.0298 6.30677H21.5863L22.2632 8.25359Z" fill="#917E5A"/>
<path d="M37.5005 15.9991C35.2574 15.9991 33.395 15.3217 32.8025 14.941C32.7603 13.9252 32.6755 12.5693 32.5911 11.7653L33.1836 11.6383C33.6491 13.924 35.2574 15.2783 37.5431 15.2783C39.5748 15.2783 41.3946 14.3895 41.3946 12.1026C41.3946 10.0288 39.49 9.35141 37.5005 8.58965C35.2996 7.78568 33.014 6.93909 33.014 4.10308C33.014 1.35429 35.4263 0 38.2185 0C39.5065 0.0181651 40.7814 0.261693 41.9855 0.719556C41.9433 1.14285 41.9433 1.60835 41.9433 2.07385C41.9433 2.58156 41.9855 3.55517 41.9855 3.55517L41.4778 3.59738C41.2237 1.69277 39.91 0.676945 37.9648 0.676945C36.1872 0.676945 34.7891 1.52353 34.7891 3.34332C34.7891 5.37496 36.5667 5.96749 38.5139 6.68705C40.7996 7.49102 43.2976 8.3376 43.2976 11.3851C43.2566 14.8562 40.2091 15.9991 37.5005 15.9991Z" fill="#917E5A"/>
<path d="M47.1928 15.7454V15.2373C47.6583 15.1951 48.9282 15.1525 49.2667 14.814C49.4781 14.6026 49.5207 14.1793 49.5207 13.3327C49.5207 13.3327 49.5629 10.5815 49.5629 9.77752V5.33316C49.5629 4.52918 49.5207 2.7512 49.5207 2.7512C49.5207 1.90461 49.4785 1.52393 49.2667 1.26988C48.9282 0.931403 47.6587 0.888792 47.1928 0.846584V0.381083C47.3199 0.381083 48.9282 0.423292 49.7322 0.423292C50.5361 0.423292 51.4676 0.381083 52.7804 0.381083C55.3624 0.381083 57.1822 0.635139 58.3681 1.8624C59.0322 2.58762 59.3822 3.54625 59.3417 4.52878C59.3417 7.57624 56.8867 9.01535 54.0085 9.01535C53.1924 9.02018 52.3799 8.90616 51.5966 8.67688V9.86194C51.5966 10.6659 51.6388 13.3327 51.6388 13.3327C51.681 14.1367 51.681 14.5177 51.9351 14.7718C52.1891 15.0259 52.6546 15.1103 53.5028 15.1529L54.5186 15.2377V15.7454H47.1928ZM56.2082 1.90461C55.5308 1.22727 54.5576 0.973612 52.7796 0.973612C52.3841 0.964964 51.9885 0.979056 51.5946 1.01582V8.08435C52.1413 8.26077 52.7133 8.34659 53.2877 8.33841C55.5734 8.33841 57.1392 7.15335 57.1392 4.44436C57.161 3.98041 57.0899 3.51678 56.93 3.0807C56.7702 2.64462 56.5247 2.24449 56.2082 1.90461Z" fill="#917E5A"/>
<path d="M62.5572 15.7454V15.2373C63.0227 15.1951 64.2925 15.1525 64.631 14.814C64.8425 14.6026 64.8851 14.1793 64.8851 13.3327C64.8851 13.3327 64.9273 10.5815 64.9273 9.77752V5.33316C64.9273 4.52918 64.8851 2.7512 64.8851 2.7512C64.8851 1.90461 64.8428 1.52393 64.631 1.26988C64.2925 0.931403 63.0231 0.888792 62.5572 0.846584V0.381083C63.6578 0.423292 65.2661 0.423292 65.9857 0.423292C66.7053 0.423292 68.271 0.381083 69.3294 0.381083V0.888792C68.8639 0.931001 67.5941 0.973612 67.2556 1.31208C67.0441 1.52353 67.0015 1.94682 67.0015 2.7934C67.0015 2.7934 66.9593 4.48657 66.9593 5.29055V9.77752C66.9593 10.5815 67.0015 13.3327 67.0015 13.3327C67.0437 14.1793 67.0437 14.56 67.2556 14.814C67.5941 15.1525 68.8635 15.1951 69.3294 15.2373V15.745L62.5572 15.7454Z" fill="#917E5A"/>
<path d="M75.8894 15.745V15.2373C76.3549 15.1951 78.0481 15.1525 78.3866 14.814C78.598 14.6026 78.6406 14.1793 78.6406 13.3327C78.6406 13.3327 78.6828 10.5815 78.6828 9.77752V1.22727H76.3111C74.6606 1.22727 74.2373 1.35429 73.8562 1.73497C73.5279 2.11121 73.2959 2.56164 73.1805 3.04746L72.969 3.85143H72.3765C72.5457 3.04746 72.842 1.05803 72.9268 0.296264C73.3079 0.338473 75.6358 0.423292 78.0903 0.423292H81.434C83.8058 0.423292 86.4709 0.338473 86.8942 0.296264C86.852 1.10024 86.8094 2.66799 86.8094 3.85143H86.3013L86.1321 3.04746C85.9628 2.28369 85.878 1.98943 85.6239 1.73538C85.2429 1.35429 84.7352 1.22767 82.9998 1.22767H80.6719V9.77712C80.6719 10.5811 80.7141 13.3323 80.7141 13.3323C80.7563 14.1789 80.7563 14.5596 80.9681 14.8136C81.3066 15.1521 82.9998 15.1947 83.4653 15.2369V15.7446L75.8894 15.745Z" fill="#917E5A"/>
<path d="M95.0208 15.2373C95.4019 15.1951 96.5885 15.1525 96.8832 14.8562C96.9964 14.728 97.0568 14.5617 97.0524 14.3907C96.9611 13.7055 96.7759 13.0361 96.5021 12.4013L95.7383 10.3274H90.8727L90.1089 12.4013C89.8286 13.0485 89.6433 13.7328 89.5586 14.4329C89.5586 15.2795 90.9129 15.1967 91.6324 15.2795V15.7872H86.3017V15.2795C86.979 15.2373 87.656 15.2373 88.1641 14.7718C88.5874 14.3485 88.7988 13.6712 89.0951 12.8672L92.1003 4.40216C93.1584 1.3969 93.0313 1.69317 93.5375 0.254056H94.2148C94.4263 0.931403 94.9786 2.41272 95.5691 4.10549L98.7448 12.8688C99.0411 13.6728 99.2525 14.3501 99.6758 14.7734C100.184 15.2811 100.861 15.2389 101.538 15.2811V15.7888H95.0208V15.2373ZM94.7667 7.66066C93.8779 5.24874 93.4124 3.64079 93.2432 2.96264H93.201C92.9895 3.72642 92.6085 4.99428 91.6775 7.66066L91.0001 9.60748H95.4445L94.7671 7.66066H94.7667Z" fill="#917E5A"/>
</svg>
