<svg width="100" height="24" viewBox="0 0 100 24" fill="none" xmlns="http://www.w3.org/2000/svg">
<path d="M11.6942 19.1354H11.3989C11.307 19.0304 11.202 18.9385 11.0839 18.8597C10.9658 18.7679 10.782 18.7219 10.5326 18.7219C10.3358 18.7219 10.1192 18.7613 9.88297 18.8401C9.65985 18.9057 9.39735 18.9844 9.09548 19.0763C8.80674 19.1682 8.47862 19.2469 8.11112 19.3125C7.74363 19.3913 7.33676 19.4307 6.89052 19.4307C6.06365 19.4307 5.25648 19.2797 4.46899 18.9779C3.69463 18.676 2.95964 18.1838 2.26403 17.5013C1.62091 16.8582 1.0828 16.097 0.649677 15.2176C0.216559 14.3383 0 13.3211 0 12.1661C0 11.1817 0.177185 10.2433 0.531555 9.35083C0.885924 8.45834 1.3781 7.67085 2.00809 6.98836C2.63808 6.30588 3.37963 5.76776 4.23275 5.37401C5.08586 4.96715 6.01772 4.76371 7.02833 4.76371C7.4352 4.76371 7.79613 4.80309 8.11112 4.88183C8.42612 4.96058 8.7083 5.05246 8.95767 5.15746C9.20704 5.24933 9.43673 5.33464 9.64672 5.41339C9.85672 5.49214 10.0602 5.53151 10.257 5.53151C10.5195 5.53151 10.7033 5.49214 10.8083 5.41339C10.9264 5.32152 11.0314 5.22308 11.1233 5.11808H11.4186V9.05552H11.202C11.0839 8.55678 10.933 8.0646 10.7492 7.57898C10.5655 7.09336 10.3095 6.66681 9.98141 6.29931C9.65329 5.91869 9.23329 5.61682 8.72143 5.3937C8.22268 5.15746 7.59926 5.03933 6.85114 5.03933C6.15553 5.03933 5.55835 5.15089 5.05961 5.37401C4.56087 5.58401 4.14087 5.87276 3.79963 6.24025C3.45838 6.59462 3.18276 7.01461 2.97277 7.50023C2.77589 7.97272 2.62496 8.47803 2.51996 9.01615C2.41496 9.54114 2.34278 10.0793 2.3034 10.6305C2.27715 11.1686 2.26403 11.6805 2.26403 12.1661C2.26403 13.5442 2.37559 14.6861 2.59871 15.5917C2.82183 16.4973 3.13026 17.2126 3.52401 17.7376C3.93088 18.2626 4.41649 18.6301 4.98086 18.8401C5.54523 19.0501 6.16865 19.1551 6.85114 19.1551C7.7305 19.1551 8.43924 19.0304 8.97736 18.781C9.51548 18.5316 9.9486 18.2101 10.2767 17.8163C10.6048 17.4095 10.8542 16.9566 11.0248 16.4579C11.1955 15.946 11.3464 15.4407 11.4776 14.942H11.6942V19.1354Z" fill="white"/>
<path d="M12.3058 19.1354H12.6011C12.693 19.0304 12.798 18.9385 12.9161 18.8597C13.0342 18.7679 13.218 18.7219 13.4674 18.7219C13.6642 18.7219 13.8808 18.7613 14.117 18.8401C14.3402 18.9057 14.6027 18.9844 14.9045 19.0763C15.1933 19.1682 15.5214 19.2469 15.8889 19.3125C16.2564 19.3913 16.6633 19.4307 17.1095 19.4307C17.9364 19.4307 18.7435 19.2797 19.531 18.9779C20.3054 18.676 21.0404 18.1838 21.736 17.5013C22.3791 16.8582 22.9172 16.097 23.3503 15.2176C23.7835 14.3383 24 13.3211 24 12.1661C24 11.1817 23.8228 10.2433 23.4685 9.35083C23.1141 8.45834 22.6219 7.67085 21.9919 6.98836C21.3619 6.30588 20.6204 5.76776 19.7673 5.37401C18.9142 4.96715 17.9823 4.76371 16.9717 4.76371C16.5648 4.76371 16.2039 4.80309 15.8889 4.88183C15.5739 4.96058 15.2917 5.05246 15.0423 5.15746C14.793 5.24933 14.5633 5.33464 14.3533 5.41339C14.1433 5.49214 13.9399 5.53151 13.743 5.53151C13.4805 5.53151 13.2967 5.49214 13.1917 5.41339C13.0736 5.32152 12.9686 5.22308 12.8768 5.11808H12.5814V9.05552H12.798C12.9161 8.55678 13.0671 8.0646 13.2508 7.57898C13.4346 7.09336 13.6905 6.66681 14.0186 6.29931C14.3467 5.91869 14.7667 5.61682 15.2786 5.3937C15.7773 5.15746 16.4008 5.03933 17.1489 5.03933C17.8445 5.03933 18.4417 5.15089 18.9404 5.37401C19.4391 5.58401 19.8591 5.87276 20.2004 6.24025C20.5416 6.59462 20.8173 7.01461 21.0272 7.50023C21.2241 7.97272 21.3751 8.47803 21.4801 9.01615C21.5851 9.54114 21.6572 10.0793 21.6966 10.6305C21.7229 11.1686 21.736 11.6805 21.736 12.1661C21.736 13.5442 21.6244 14.6861 21.4013 15.5917C21.1782 16.4973 20.8698 17.2126 20.476 17.7376C20.0691 18.2626 19.5835 18.6301 19.0192 18.8401C18.4548 19.0501 17.8314 19.1551 17.1489 19.1551C16.2695 19.1551 15.5608 19.0304 15.0227 18.781C14.4845 18.5316 14.0514 18.2101 13.7233 17.8163C13.3952 17.4095 13.1458 16.9566 12.9752 16.4579C12.8046 15.946 12.6536 15.4407 12.5224 14.942H12.3058V19.1354Z" fill="white"/>
<path d="M19.0382 24V23.7047C18.9332 23.6128 18.8414 23.5078 18.7626 23.3897C18.6707 23.2716 18.6248 23.0878 18.6248 22.8385C18.6248 22.6416 18.6642 22.425 18.7429 22.1888C18.8085 21.9657 18.8873 21.7032 18.9792 21.4013C19.071 21.1125 19.1498 20.7844 19.2154 20.4169C19.2942 20.0494 19.3335 19.6426 19.3335 19.1963C19.3335 18.3695 19.1826 17.5623 18.8807 16.7748C18.5789 16.0004 18.0867 15.2654 17.4042 14.5698C16.7611 13.9267 15.9998 13.3886 15.1205 12.9555C14.2411 12.5224 13.2239 12.3058 12.069 12.3058C11.0846 12.3058 10.1462 12.483 9.25369 12.8374C8.36121 13.1917 7.57372 13.6839 6.89123 14.3139C6.20874 14.9439 5.67062 15.6854 5.27688 16.5386C4.87001 17.3917 4.66658 18.3235 4.66658 19.3341C4.66658 19.741 4.70595 20.1019 4.7847 20.4169C4.86345 20.7319 4.95532 21.0141 5.06032 21.2635C5.15219 21.5129 5.23751 21.7425 5.31625 21.9525C5.395 22.1625 5.43438 22.366 5.43438 22.5628C5.43438 22.8253 5.395 23.0091 5.31625 23.1141C5.22438 23.2322 5.12594 23.3372 5.02095 23.4291V23.7244H8.95838V23.5078C8.45964 23.3897 7.96746 23.2388 7.48185 23.055C6.99623 22.8713 6.56967 22.6153 6.20218 22.2872C5.82156 21.9591 5.51969 21.5391 5.29657 21.0272C5.06032 20.5285 4.9422 19.9051 4.9422 19.1569C4.9422 18.4613 5.05376 17.8642 5.27688 17.3654C5.48688 16.8667 5.77562 16.4467 6.14312 16.1054C6.49749 15.7642 6.91748 15.4886 7.4031 15.2786C7.87559 15.0817 8.38089 14.9308 8.91901 14.8258C9.444 14.7208 9.98212 14.6486 10.5334 14.6092C11.0715 14.583 11.5833 14.5698 12.069 14.5698C13.4471 14.5698 14.5889 14.6814 15.4945 14.9045C16.4001 15.1276 17.1154 15.4361 17.6404 15.8298C18.1654 16.2367 18.5329 16.7223 18.7429 17.2867C18.9529 17.851 19.0579 18.4745 19.0579 19.1569C19.0579 20.0363 18.9332 20.7451 18.6839 21.2832C18.4345 21.8213 18.1129 22.2544 17.7192 22.5825C17.3123 22.9106 16.8595 23.16 16.3608 23.3306C15.8489 23.5013 15.3436 23.6522 14.8449 23.7834V24H19.0382Z" fill="white"/>
<path d="M4.96179 0V0.295308C5.06679 0.387182 5.15866 0.492179 5.23741 0.610303C5.32929 0.728426 5.37522 0.912172 5.37522 1.16154C5.37522 1.35842 5.33585 1.57497 5.2571 1.81122C5.19148 2.03434 5.11273 2.29684 5.02085 2.59871C4.92898 2.88745 4.85023 3.21557 4.78461 3.58307C4.70586 3.95056 4.66648 4.35743 4.66648 4.80368C4.66648 5.63054 4.81742 6.43771 5.11929 7.2252C5.42116 7.99956 5.91334 8.73455 6.59583 9.43017C7.23894 10.0733 8.00018 10.6114 8.87954 11.0445C9.7589 11.4776 10.7761 11.6942 11.9311 11.6942C12.9154 11.6942 13.8538 11.517 14.7463 11.1626C15.6388 10.8083 16.4263 10.3161 17.1088 9.6861C17.7913 9.05611 18.3294 8.31456 18.7231 7.46145C19.13 6.60834 19.3334 5.67647 19.3334 4.66586C19.3334 4.259 19.2941 3.89806 19.2153 3.58307C19.1366 3.26807 19.0447 2.98589 18.9397 2.73652C18.8478 2.48715 18.7625 2.25747 18.6838 2.04747C18.605 1.83747 18.5656 1.63404 18.5656 1.43716C18.5656 1.17467 18.605 0.990922 18.6838 0.885924C18.7756 0.767801 18.8741 0.662801 18.9791 0.570928V0.27562L15.0416 0.27562V0.492179C15.5404 0.610302 16.0326 0.761239 16.5182 0.944986C17.0038 1.12873 17.4303 1.38467 17.7978 1.71279C18.1785 2.04091 18.4803 2.4609 18.7035 2.97276C18.9397 3.47151 19.0578 4.09494 19.0578 4.84305C19.0578 5.53866 18.9463 6.13584 18.7231 6.63458C18.5131 7.13333 18.2244 7.55332 17.8569 7.89456C17.5025 8.23581 17.0825 8.51143 16.5969 8.72143C16.1244 8.9183 15.6191 9.06923 15.081 9.17423C14.556 9.27923 14.0179 9.35142 13.4667 9.39079C12.9285 9.41704 12.4167 9.43017 11.9311 9.43017C10.553 9.43017 9.4111 9.3186 8.50549 9.09548C7.59987 8.87236 6.88457 8.56393 6.35958 8.17019C5.83459 7.76332 5.4671 7.2777 5.2571 6.71333C5.0471 6.14897 4.9421 5.52554 4.9421 4.84305C4.9421 3.96369 5.06679 3.25495 5.31616 2.71683C5.56553 2.17872 5.88709 1.7456 6.28083 1.41748C6.6877 1.08936 7.14051 0.839985 7.63925 0.669363C8.15112 0.49874 8.65642 0.347807 9.15516 0.216559V5.00055e-08L4.96179 0Z" fill="white"/>
<path d="M35.402 19V18.766C35.942 18.604 36.122 18.19 36.104 16.714V13.33L33.386 8.398C32.684 7.12 32.162 6.796 31.784 6.634V6.4H34.628V6.634C34.088 6.796 34.304 7.12 35.024 8.398L37.526 12.862L40.046 8.398C40.658 7.3 40.676 6.76 39.992 6.634V6.4H42.134V6.634C41.648 6.796 41.09 7.12 40.37 8.398L37.616 13.294V16.714C37.616 18.19 37.778 18.604 38.336 18.766V19H35.402ZM45.8191 19.18C43.5331 19.18 41.1031 17.758 41.1031 14.626C41.1031 11.818 43.3531 9.874 45.8191 9.874C48.0511 9.874 50.5171 11.242 50.5171 14.446C50.5171 17.524 47.9431 19.18 45.8191 19.18ZM46.3591 18.802C48.2851 18.802 49.1491 17.254 49.1491 15.508C49.1491 13.186 47.5111 10.09 45.1531 10.216C43.3171 10.288 42.4891 11.8 42.4891 13.6C42.4891 15.886 43.9651 18.802 46.3591 18.802ZM55.2072 19.18C53.3172 19.18 52.4532 17.974 52.4532 15.904V12.574C52.4532 11.314 52.2192 11.134 51.7332 10.918V10.72L53.6952 9.856L53.8572 9.982V15.58C53.8572 17.632 54.4332 18.55 55.8732 18.55C56.9352 18.55 57.9072 17.884 58.7172 17.02V12.574C58.7172 11.314 58.4832 11.134 57.9972 10.918V10.72L59.9592 9.856L60.1212 9.982V16.714C60.1212 18.19 60.2832 18.604 60.8412 18.766V19H59.3112C58.9152 19 58.7172 18.802 58.7172 18.28V17.362C57.7992 18.316 56.5572 19.18 55.2072 19.18ZM62.0545 19V18.766C62.6125 18.604 62.7745 18.19 62.7745 16.714V12.574C62.7745 11.314 62.5405 11.134 62.0545 10.918V10.72L64.0165 9.856L64.1785 9.982V12.232C64.4665 11.53 64.9525 10.918 65.4925 10.522C66.0505 10.108 66.6805 9.874 67.5445 9.874C68.2645 9.874 68.7145 10.054 68.7145 10.36C68.7145 10.756 68.3185 11.386 67.6705 11.386C67.1845 11.386 66.4825 11.188 65.4205 10.882C64.8985 11.26 64.2505 12.268 64.1965 13.132H64.1785V16.714C64.1785 18.19 64.3585 18.604 64.8985 18.766V19H62.0545ZM80.5384 19.18C76.3984 19.18 73.7524 16.876 73.7524 12.952C73.7524 9.118 76.7224 6.274 80.9524 6.274C82.5004 6.274 84.3004 6.724 85.0024 7.174L85.0744 9.316L84.8944 9.352C84.1924 7.714 82.4824 6.616 80.3404 6.616C77.4784 6.616 75.2644 8.524 75.2644 12.196C75.2464 15.58 77.2984 18.82 81.0424 18.82C82.9864 18.82 84.4984 17.794 85.2004 15.85L85.3984 15.868L85.1104 18.208C84.2644 18.676 82.5544 19.18 80.5384 19.18ZM91.5222 19.18C89.2362 19.18 86.8062 17.758 86.8062 14.626C86.8062 11.818 89.0562 9.874 91.5222 9.874C93.7542 9.874 96.2202 11.242 96.2202 14.446C96.2202 17.524 93.6462 19.18 91.5222 19.18ZM92.0622 18.802C93.9882 18.802 94.8522 17.254 94.8522 15.508C94.8522 13.186 93.2142 10.09 90.8562 10.216C89.0202 10.288 88.1922 11.8 88.1922 13.6C88.1922 15.886 89.6682 18.802 92.0622 18.802ZM97.7367 19.126C97.2327 19.126 96.8007 18.676 96.8007 18.154C96.8007 17.632 97.2327 17.2 97.7367 17.2C98.2407 17.2 98.6547 17.632 98.6547 18.154C98.6547 18.676 98.2407 19.126 97.7367 19.126Z" fill="white"/>
</svg>
