<svg width="160" height="55" viewBox="0 0 160 55" fill="none" xmlns="http://www.w3.org/2000/svg">
<path d="M20.6088 23.6772C18.2099 24.7135 15.6206 25.2361 13.0076 25.2114C5.00414 25.2107 0 20.2091 0 12.739C0 5.60273 5.2024 0.133655 13.6727 0.133655C16.0582 0.135291 18.4261 0.542259 20.6753 1.33718C20.6753 2.54071 20.809 4.3384 20.8755 5.47225L20.2066 5.40257C18.8764 2.6674 16.5403 1.2675 13.3389 1.2675C7.26994 1.2675 3.86839 6.06958 3.86839 12.739C3.86839 19.3419 7.4701 24.1408 13.0722 24.1408C16.2736 24.1408 18.9416 22.7403 20.3421 19.2051H21.0757C20.942 20.2725 20.6753 21.9397 20.6088 23.6734V23.6772Z" fill="white"/>
<path d="M34.7484 0.266676V1.0667C34.1479 1.13322 32.3476 1.20036 31.8136 1.6672C31.6353 1.86924 31.54 2.1313 31.547 2.40072C31.6909 3.48049 31.9827 4.53533 32.4141 5.53559L33.6177 8.80348H41.3513L42.5548 5.53559C42.9561 4.52977 43.2246 3.47594 43.3536 2.40072C43.3536 1.0667 41.2195 1.19719 40.0857 1.0667V0.266676H48.4844V1.0667C47.4171 1.13322 46.3504 1.13322 45.5497 1.86673C44.8827 2.53374 44.5495 3.60108 44.0827 4.86795L39.3503 18.2075C37.6831 22.943 37.8832 22.4762 37.0826 24.7439H36.0152C35.682 23.6765 34.8117 21.3423 33.8812 18.6749L28.877 4.93573C28.4102 3.66886 28.077 2.60152 27.41 1.93451C26.6112 1.13385 25.5445 1.20036 24.4772 1.13385V0.266676H34.7484ZM35.0815 13.0057C36.4821 16.8063 37.2156 19.34 37.4823 20.4086H37.5488C37.882 19.2051 38.4825 17.2073 39.9495 13.0057L41.0168 9.93796H34.0148L35.0815 13.0057Z" fill="white"/>
<path d="M59.0919 25.2107C55.5573 25.2107 52.6226 24.1434 51.6889 23.5435C51.6224 21.9428 51.4888 19.8062 51.3558 18.5394L52.2894 18.3392C53.023 21.9409 55.5573 24.075 59.159 24.075C62.3604 24.075 65.228 22.6744 65.228 19.0708C65.228 15.8029 62.2268 14.7356 59.0919 13.5352C55.6238 12.2684 52.0221 10.9344 52.0221 6.46547C52.0221 2.13404 55.8234 0 60.2232 0C62.2529 0.0286239 64.2618 0.412367 66.1591 1.13385C66.0926 1.80086 66.0926 2.53437 66.0926 3.26789C66.0926 4.06792 66.1591 5.6021 66.1591 5.6021L65.3591 5.66861C64.9588 2.6674 62.8887 1.0667 59.8235 1.0667C57.0225 1.0667 54.8194 2.40072 54.8194 5.26828C54.8194 8.46966 57.6204 9.40335 60.6888 10.5372C64.2905 11.8041 68.2267 13.1381 68.2267 17.9401C68.1621 23.4099 63.36 25.2107 59.0919 25.2107Z" fill="white"/>
<path d="M74.3647 24.811V24.0104C75.0982 23.9438 77.0992 23.8767 77.6325 23.3434C77.9657 23.0102 78.0329 22.3432 78.0329 21.0091C78.0329 21.0091 78.0994 16.6739 78.0994 15.407V8.40378C78.0994 7.13691 78.0329 4.33523 78.0329 4.33523C78.0329 3.00122 77.9664 2.40135 77.6325 2.00102C77.0992 1.46767 75.0988 1.40053 74.3647 1.33401V0.600497C74.5648 0.600497 77.0992 0.667007 78.3661 0.667007C79.6329 0.667007 81.1006 0.600497 83.1694 0.600497C87.238 0.600497 90.1055 1.00083 91.9742 2.93471C93.0207 4.07747 93.5722 5.58805 93.5083 7.13628C93.5083 11.9384 89.6399 14.206 85.1045 14.206C83.8185 14.2137 82.5382 14.034 81.3039 13.6727V15.5401C81.3039 16.8069 81.3704 21.0091 81.3704 21.0091C81.437 22.276 81.437 22.8765 81.8373 23.2768C82.2376 23.6772 82.9711 23.8102 84.3077 23.8773L85.9084 24.011V24.811H74.3647ZM88.5707 3.00122C87.5034 1.93388 85.9698 1.53418 83.1681 1.53418C82.5449 1.52055 81.9214 1.54276 81.3008 1.60069V12.739C82.1623 13.017 83.0636 13.1522 83.9688 13.1393C87.5705 13.1393 90.0377 11.272 90.0377 7.00326C90.0722 6.27218 89.9601 5.5416 89.7082 4.85444C89.4563 4.16729 89.0695 3.53678 88.5707 3.00122Z" fill="white"/>
<path d="M98.5752 24.811V24.0104C99.3087 23.9438 101.31 23.8767 101.843 23.3434C102.176 23.0102 102.243 22.3432 102.243 21.0091C102.243 21.0091 102.31 16.6739 102.31 15.407V8.40378C102.31 7.13691 102.243 4.33523 102.243 4.33523C102.243 3.00122 102.177 2.40135 101.843 2.00102C101.31 1.46767 99.3093 1.40053 98.5752 1.33401V0.600497C100.31 0.667007 102.844 0.667007 103.978 0.667007C105.112 0.667007 107.579 0.600497 109.247 0.600497V1.40053C108.513 1.46704 106.512 1.53418 105.979 2.06753C105.646 2.40072 105.578 3.06773 105.578 4.40174C105.578 4.40174 105.512 7.06977 105.512 8.33664V15.407C105.512 16.6739 105.578 21.0091 105.578 21.0091C105.645 22.3432 105.645 22.943 105.979 23.3434C106.512 23.8767 108.513 23.9438 109.247 24.0104V24.8104L98.5752 24.811Z" fill="white"/>
<path d="M119.584 24.8104V24.0104C120.317 23.9438 122.985 23.8767 123.519 23.3434C123.852 23.0102 123.919 22.3432 123.919 21.0091C123.919 21.0091 123.985 16.6739 123.985 15.407V1.93388H120.248C117.647 1.93388 116.98 2.13404 116.38 2.73391C115.862 3.32676 115.497 4.03654 115.315 4.80207L114.982 6.06894H114.048C114.315 4.80207 114.782 1.6672 114.915 0.466842C115.516 0.533352 119.184 0.667007 123.052 0.667007H128.321C132.058 0.667007 136.258 0.533352 136.925 0.466842C136.858 1.73371 136.791 4.20411 136.791 6.06894H135.99L135.724 4.80207C135.457 3.59854 135.323 3.13487 134.923 2.73454C134.322 2.13404 133.522 1.93451 130.788 1.93451H127.12V15.4064C127.12 16.6733 127.186 21.0085 127.186 21.0085C127.253 22.3425 127.253 22.9424 127.587 23.3427C128.12 23.8761 130.788 23.9432 131.521 24.0097V24.8098L119.584 24.8104Z" fill="white"/>
<path d="M149.73 24.0104C150.331 23.9438 152.201 23.8767 152.665 23.4099C152.843 23.2078 152.938 22.9458 152.932 22.6763C152.788 21.5966 152.496 20.5417 152.064 19.5415L150.861 16.2736H143.194L141.99 19.5415C141.549 20.5613 141.256 21.6395 141.123 22.7429C141.123 24.0769 143.257 23.9464 144.391 24.0769V24.8769H135.991V24.0769C137.058 24.0104 138.125 24.0104 138.926 23.2768C139.593 22.6098 139.926 21.5425 140.393 20.2756L145.128 6.93675C146.795 2.20119 146.595 2.66803 147.393 0.400331H148.46C148.793 1.46767 149.664 3.80188 150.594 6.46927L155.598 20.2782C156.065 21.545 156.398 22.6124 157.065 23.2794C157.865 24.0794 158.933 24.0129 160 24.0794V24.8794H149.73V24.0104ZM149.33 12.0714C147.929 8.27076 147.196 5.73702 146.929 4.66842H146.863C146.529 5.87194 145.929 7.8698 144.462 12.0714L143.395 15.1391H150.398L149.33 12.0714H149.33Z" fill="white"/>
<path d="M63.3698 41.2822C63.0898 40.6382 62.6605 40.1342 62.0818 39.7702C61.5125 39.3969 60.8405 39.2102 60.0658 39.2102C59.3378 39.2102 58.6845 39.3782 58.1058 39.7142C57.5271 40.0502 57.0698 40.5309 56.7338 41.1562C56.3978 41.7722 56.2298 42.4909 56.2298 43.3122C56.2298 44.1335 56.3978 44.8569 56.7338 45.4822C57.0698 46.1075 57.5271 46.5882 58.1058 46.9242C58.6845 47.2602 59.3378 47.4282 60.0658 47.4282C60.7471 47.4282 61.3585 47.2835 61.8998 46.9942C62.4505 46.6955 62.8891 46.2755 63.2158 45.7342C63.5518 45.1835 63.7431 44.5442 63.7898 43.8162H59.6738V43.0182H64.8258V43.7322C64.7791 44.5909 64.5458 45.3702 64.1258 46.0702C63.7058 46.7609 63.1411 47.3069 62.4318 47.7082C61.7318 48.1095 60.9431 48.3102 60.0658 48.3102C59.1605 48.3102 58.3391 48.1002 57.6018 47.6802C56.8645 47.2509 56.2811 46.6582 55.8518 45.9022C55.4318 45.1369 55.2218 44.2735 55.2218 43.3122C55.2218 42.3509 55.4318 41.4922 55.8518 40.7362C56.2811 39.9709 56.8645 39.3782 57.6018 38.9582C58.3391 38.5289 59.1605 38.3142 60.0658 38.3142C61.1111 38.3142 62.0258 38.5755 62.8098 39.0982C63.5938 39.6209 64.1631 40.3489 64.5178 41.2822H63.3698ZM67.601 39.2242V42.8782H71.311V43.6902H67.601V47.4002H71.731V48.2122H66.621V38.4122H71.731V39.2242H67.601ZM81.04 48.2122H80.06L74.642 39.9802V48.2122H73.662V38.4262H74.642L80.06 46.6442V38.4262H81.04V48.2122ZM84.2396 39.2242V42.8782H87.9496V43.6902H84.2396V47.4002H88.3696V48.2122H83.2596V38.4122H88.3696V39.2242H84.2396ZM86.9136 37.2082V37.9642L84.0436 36.2982V35.4162L86.9136 37.2082ZM98.0567 38.4262L94.3467 48.2122H93.2267L89.5167 38.4262H90.5807L93.7867 47.1482L97.0207 38.4262H98.0567ZM100.509 39.2242V42.8782H104.219V43.6902H100.509V47.4002H104.639V48.2122H99.5292V38.4122H104.639V39.2242H100.509Z" fill="white"/>
</svg>
