<svg width="25" height="24" viewBox="0 0 25 24" fill="none" xmlns="http://www.w3.org/2000/svg">
<path d="M21.75 17V17.5C22.0261 17.5 22.25 17.2761 22.25 17H21.75ZM21.75 4H22.25C22.25 3.72386 22.0261 3.5 21.75 3.5V4ZM13.75 17V16.5C13.6513 16.5 13.5548 16.5292 13.4726 16.584L13.75 17ZM7.75 21H7.25C7.25 21.1844 7.35149 21.3538 7.51407 21.4408C7.67665 21.5278 7.87392 21.5183 8.02735 21.416L7.75 21ZM7.75 17H8.25C8.25 16.7239 8.02614 16.5 7.75 16.5V17ZM3.75 17H3.25C3.25 17.2761 3.47386 17.5 3.75 17.5V17ZM3.75 4V3.5C3.47386 3.5 3.25 3.72386 3.25 4H3.75ZM22.25 17V4H21.25V17H22.25ZM13.75 17.5H21.75V16.5H13.75V17.5ZM8.02735 21.416L14.0274 17.416L13.4726 16.584L7.47265 20.584L8.02735 21.416ZM7.25 17V21H8.25V17H7.25ZM3.75 17.5H7.75V16.5H3.75V17.5ZM3.25 4V17H4.25V4H3.25ZM21.75 3.5H3.75V4.5H21.75V3.5Z" fill="#917E5A"/>
</svg>
