<svg width="25" height="24" viewBox="0 0 25 24" fill="none" xmlns="http://www.w3.org/2000/svg">
<path d="M12.9908 18.4041L15.5555 15.8394C15.8981 15.4968 16.4371 15.4491 16.8346 15.7263L20.3853 18.2028C20.8959 18.5589 20.9606 19.2899 20.5204 19.7301L20.1341 20.1164C19.4239 20.8266 18.4047 21.1343 17.4486 20.8265C15.3836 20.1618 11.6267 18.6184 8.51175 15.5035C5.39678 12.3885 3.8534 8.63158 3.18871 6.56663C2.88093 5.61048 3.18859 4.59133 3.89885 3.88107L4.28512 3.49481C4.72529 3.05464 5.45634 3.11928 5.81244 3.62986L8.28888 7.1806C8.5661 7.57807 8.51844 8.1171 8.17578 8.45976L5.61113 11.0244" stroke="#917E5A" stroke-linecap="round"/>
</svg>
