<svg width="195" height="16" viewBox="0 0 195 16" fill="none" xmlns="http://www.w3.org/2000/svg">
<path d="M35.3733 4.47048L38.8656 3.17248L35.3733 1.80753V0L41.3575 2.41004V3.90888L35.3733 6.3338V4.47048ZM2.30219 15.9963C1.0451 15.9963 0 15.3529 0 13.9358V13.854C0 12.1283 1.49884 11.563 3.30637 11.563H4.17666V11.2283C4.17666 10.5328 3.86797 10.1051 3.14644 10.1051C2.49186 10.1051 2.14226 10.4807 2.09019 11.0163H0.215714C0.349605 9.46165 1.58066 8.69921 3.23942 8.69921C4.89819 8.69921 6.13296 9.42073 6.13296 11.1613V15.8475H4.21757V15.0442C3.88285 15.5537 3.23942 15.9963 2.30219 15.9963ZM4.17666 13.523V12.8536H3.39935C2.43608 12.8536 1.94142 13.1213 1.94142 13.7499V13.8168C1.94142 14.3003 2.23524 14.6351 2.89354 14.6351C3.55184 14.6351 4.17666 14.2594 4.17666 13.523ZM10.5625 15.9963C8.62111 15.9963 7.21525 14.7913 7.21525 12.4221V12.3291C7.21525 9.96002 8.71409 8.70293 10.5737 8.70293C12.1655 8.70293 13.4784 9.50628 13.6383 11.3398H11.7638C11.6448 10.6592 11.2952 10.2166 10.6109 10.2166C9.7815 10.2166 9.20502 10.8712 9.20502 12.251V12.4668C9.20502 13.8875 9.71455 14.5272 10.6258 14.5272C11.2952 14.5272 11.7899 14.0325 11.8977 13.2701H13.6792C13.5453 14.8619 12.4593 16 10.5588 16L10.5625 15.9963ZM17.8484 15.9963C15.907 15.9963 14.5012 14.7913 14.5012 12.4221V12.3291C14.5012 9.96002 16 8.70293 17.8596 8.70293C19.4514 8.70293 20.7643 9.50628 20.9242 11.3398H19.0497C18.9307 10.6592 18.5811 10.2166 17.8968 10.2166C17.0674 10.2166 16.4909 10.8712 16.4909 12.251V12.4668C16.4909 13.8875 17.0005 14.5272 17.9117 14.5272C18.5811 14.5272 19.0758 14.0325 19.1836 13.2701H20.9651C20.8312 14.8619 19.7452 16 17.8447 16L17.8484 15.9963ZM25.1827 15.9963C23.1595 15.9963 21.7834 14.7913 21.7834 12.463V12.3291C21.7834 9.98605 23.2413 8.70293 25.1158 8.70293C26.8563 8.70293 28.3143 9.68108 28.3143 11.9944V12.8387H23.762C23.8438 14.0958 24.3794 14.5793 25.2199 14.5793C25.9712 14.5793 26.3728 14.1776 26.5067 13.6681H28.3143C28.0986 14.9921 27.0163 15.9963 25.1827 15.9963ZM23.7917 11.5407H26.4175C26.3766 10.5105 25.9079 10.0679 25.1306 10.0679C24.5132 10.0679 23.9517 10.4026 23.7917 11.5407ZM29.523 8.84798H31.4756V9.89307C31.8252 9.23849 32.5207 8.70293 33.5918 8.70293C34.8638 8.70293 35.708 9.46536 35.708 11.165V15.8512H33.7517V11.4589C33.7517 10.6406 33.417 10.2799 32.7066 10.2799C31.9963 10.2799 31.4756 10.6964 31.4756 11.5779V15.8475H29.523V8.84426V8.84798ZM39.364 6.73547V8.8517H40.7029V10.3096H39.364V13.6309C39.364 14.1516 39.6058 14.3933 40.0595 14.3933C40.3422 14.3933 40.5542 14.3524 40.7438 14.2743V15.7992C40.517 15.8661 40.1264 15.9479 39.6467 15.9479C38.1218 15.9479 37.3966 15.2524 37.3966 13.8317V10.3096H36.5783V8.8517H37.3966V7.53882L39.364 6.73547ZM48.0669 15.8512H46.1106V14.821C45.7759 15.4905 45.1213 16 44.0762 16C42.8192 16 41.8931 15.2376 41.8931 13.59V8.8517H43.8605V13.2961C43.8605 14.0995 44.1804 14.4751 44.8796 14.4751C45.5788 14.4751 46.1106 14.0474 46.1106 13.1771V8.8517H48.0669V15.855V15.8512ZM49.484 8.84798H51.4365V10.1348C51.8531 9.19758 52.5077 8.755 53.5379 8.755V10.6815C52.2139 10.6815 51.4365 11.0832 51.4365 12.2473V15.8475H49.484V8.84426V8.84798ZM57.5583 15.9963C55.5351 15.9963 54.159 14.7913 54.159 12.463V12.3291C54.159 9.98605 55.6169 8.70293 57.4914 8.70293C59.232 8.70293 60.6899 9.68108 60.6899 11.9944V12.8387H56.1376C56.2194 14.0958 56.755 14.5793 57.5955 14.5793C58.3468 14.5793 58.7485 14.1776 58.8824 13.6681H60.6899C60.4742 14.9921 59.3919 15.9963 57.5583 15.9963ZM56.1674 11.5407H58.7931C58.7522 10.5105 58.2836 10.0679 57.5063 10.0679C56.8889 10.0679 56.3273 10.4026 56.1674 11.5407Z" fill="white"/>
<path d="M76.6899 0V16" stroke="white"/>
<path d="M171.609 12.6274C171.578 12.7299 171.423 12.803 171.301 12.8119C171.063 12.8286 169.382 12.412 169.321 12.2313L169.425 2.22007C169.913 2.16624 171.08 2.03166 171.444 2.32901C172.85 4.38099 173.96 6.87131 175.397 8.87587C175.959 9.65898 175.941 9.55516 176.448 8.79897C177.82 6.75596 178.901 4.3874 180.303 2.34568C180.665 2.05986 182.08 2.04576 182.49 2.35593V13.7706L182.298 13.9603H180.25L180.057 13.7706V7.36604L179.54 7.55061L176.587 12.4889C176.371 12.8106 175.52 12.7684 175.247 12.5748L172.184 7.61982C172.069 7.38014 171.607 7.52753 171.607 7.68262V12.6286L171.609 12.6274Z" fill="white"/>
<path d="M187.739 6.98282H193.179C193.493 7.44038 193.489 8.56955 193.179 9.01173H187.739V11.7392L187.931 11.9288H194.267V13.9578H185.307L185.294 2.34055L185.749 2.15727L193.795 2.18803C194.375 2.31492 194.22 4.31819 193.82 4.31819H187.932L187.74 4.50788V6.98154L187.739 6.98282Z" fill="white"/>
<path d="M157.509 10.7702C157.386 10.8471 154.986 10.6202 154.87 10.5049C153.23 6.76109 155.705 2.53793 159.803 2.0714C164.226 1.56897 167.597 4.30666 167.261 8.82717C167.21 9.51543 166.61 11.7558 165.81 11.7635C165.505 11.7661 163.715 11.4803 163.601 11.2995C163.46 10.8522 164.056 10.5036 164.289 10.0678C165.588 7.64417 164.182 4.45149 161.302 4.19387C158.035 3.90293 156.286 6.70982 157.21 9.64232C157.298 9.92429 157.871 10.5395 157.507 10.7689L157.509 10.7702Z" fill="white"/>
<path d="M150.104 10.4075C150.967 8.65798 150.973 6.33428 149.273 5.0808C149.014 4.88982 147.869 4.31947 147.609 4.31947H143.961V10.2806H141.593L141.4 10.0909V2.35337L141.593 2.16368H147.481C149.756 2.16368 152.282 3.96957 152.957 6.12409C153.271 7.12509 153.452 9.18476 152.952 10.1204C152.727 10.5421 152.641 10.4088 152.346 10.4088H150.106L150.104 10.4075Z" fill="white"/>
<path d="M136.599 10.4075L136.406 10.0973C137.873 7.20711 135.993 3.95419 132.626 4.18874C129.905 4.37843 128.494 7.04049 129.306 9.51671C129.419 9.86149 129.941 10.4613 129.697 10.7971L127.319 10.9791C125.555 8.14274 126.776 4.24642 129.768 2.75069C133.851 0.710244 139.297 2.97242 139.484 7.8031C139.505 8.32731 139.366 10.4075 138.647 10.4075H136.599Z" fill="white"/>
<path d="M119.618 2.94294C119.782 3.20184 119.182 4.72833 118.912 4.8142C118.288 4.7796 117.753 4.37202 117.106 4.22847C116.045 3.99136 113.192 3.86704 113.275 5.50503C113.308 6.15741 113.774 6.40093 114.303 6.62523C116.004 7.34554 119.106 7.28401 119.989 9.23602C120.291 9.90506 120.464 11.4482 119.903 12.0019C119.737 12.1647 116.027 12.9439 115.386 13.108C114.766 13.2656 113.537 13.7937 113.03 13.8283C112.598 13.8591 110.914 13.2041 110.664 12.8875C110.537 12.7799 110.564 12.703 110.6 12.5646C110.648 12.38 111.292 11.0893 111.403 11.0547C111.986 11.1175 112.507 11.5379 113.115 11.7353C114.295 12.1198 118.627 12.5582 117.651 10.2844C117.033 8.84383 111.36 9.45006 110.836 6.38299C110.027 1.65228 116.645 1.19472 119.618 2.94294Z" fill="white"/>
<path d="M104.981 2.16368L105.162 2.37131L105.116 2.80067L100.295 13.7552C100.065 14.0488 98.4998 14.018 98.0615 13.9667C97.5488 13.9052 97.4155 13.3182 97.2143 12.9042C95.5584 9.4898 94.2203 5.88185 92.6899 2.41232C92.863 2.02654 95.0431 2.05858 95.3251 2.34568L99.1561 10.7881L102.733 2.379C102.782 2.30723 103.005 2.16368 103.061 2.16368H104.981Z" fill="white"/>
<path d="M108.757 2.16368H106.198V13.959H108.757V2.16368Z" fill="white"/>
<path d="M124.31 2.16368C124.332 2.16368 124.536 2.35977 124.564 2.41873L124.613 11.2149C124.531 11.4533 122.557 11.7456 122.282 11.6584C122.212 11.6366 122.069 11.5302 122.069 11.4854V2.35337L122.261 2.16368H124.31Z" fill="white"/>
</svg>
